<svg width="26" height="26" viewBox="0 0 26 26" fill="none" xmlns="http://www.w3.org/2000/svg">
<rect width="25" height="25" transform="translate(0.5 0.0131836)" fill="white" fill-opacity="0.01" style="mix-blend-mode:multiply"/>
<path d="M19.25 18.7632V20.3257H21.1712C20.7346 20.8183 20.1982 21.2124 19.5975 21.4818C18.9969 21.7512 18.3458 21.8897 17.6875 21.8882C16.4447 21.8868 15.2532 21.3925 14.3744 20.5137C13.4957 19.635 13.0014 18.4435 13 17.2007H11.4375C11.435 18.4715 11.8207 19.7128 12.543 20.7584C13.2654 21.8041 14.2899 22.6041 15.4794 23.0514C16.6689 23.4988 17.9667 23.5721 19.199 23.2616C20.4314 22.9511 21.5395 22.2716 22.375 21.314V23.4507H23.9375V18.7632H19.25Z" fill="#4E5659"/>
<path d="M17.6875 10.9507C16.7995 10.9553 15.9226 11.1481 15.1146 11.5164C14.3066 11.8846 13.5859 12.4201 13 13.0873V10.9507H11.4375V15.6382H16.125V14.0757H14.2037C14.6404 13.583 15.1768 13.1889 15.7775 12.9196C16.3781 12.6502 17.0292 12.5116 17.6875 12.5132C18.9303 12.5145 20.1218 13.0088 21.0006 13.8876C21.8793 14.7664 22.3736 15.9579 22.375 17.2007H23.9375C23.9356 15.5437 23.2765 13.9551 22.1048 12.7834C20.9331 11.6117 19.3445 10.9526 17.6875 10.9507Z" fill="#4E5659"/>
<path d="M9.875 21.8882H5.1875V18.7632H6.75V17.2007H5.1875V13.2944H6.75V11.7319H5.1875V7.82568H6.75V6.26318H5.1875V3.13818H19.25V9.38818H20.8125V3.13818C20.8125 2.72378 20.6479 2.32635 20.3549 2.03333C20.0618 1.7403 19.6644 1.57568 19.25 1.57568H5.1875C4.7731 1.57568 4.37567 1.7403 4.08265 2.03333C3.78962 2.32635 3.625 2.72378 3.625 3.13818V6.26318H2.0625V7.82568H3.625V11.7319H2.0625V13.2944H3.625V17.2007H2.0625V18.7632H3.625V21.8882C3.625 22.3026 3.78962 22.7 4.08265 22.993C4.37567 23.2861 4.7731 23.4507 5.1875 23.4507H9.875V21.8882Z" fill="#4E5659"/>
</svg>
