<svg width="26" height="26" viewBox="0 0 26 26" fill="none" xmlns="http://www.w3.org/2000/svg">
<rect width="25" height="25" transform="translate(0.5 0.0131836)" fill="white" fill-opacity="0.01" style="mix-blend-mode:multiply"/>
<path d="M19.25 13.2944H17.6875V14.8569H19.25V13.2944Z" fill="#4E5659"/>
<path d="M22.375 6.26318H3.625V3.91943H20.8125V2.35693H3.625C3.2106 2.35693 2.81317 2.52155 2.52015 2.81458C2.22712 3.1076 2.0625 3.50503 2.0625 3.91943V20.3257C2.0625 20.7401 2.22712 21.1375 2.52015 21.4305C2.81317 21.7236 3.2106 21.8882 3.625 21.8882H22.375C22.7894 21.8882 23.1868 21.7236 23.4799 21.4305C23.7729 21.1375 23.9375 20.7401 23.9375 20.3257V7.82568C23.9375 7.41128 23.7729 7.01386 23.4799 6.72083C23.1868 6.4278 22.7894 6.26318 22.375 6.26318ZM3.625 20.3257V7.82568H22.375V10.1694H16.125C15.7106 10.1694 15.3132 10.3341 15.0201 10.6271C14.7271 10.9201 14.5625 11.3175 14.5625 11.7319V16.4194C14.5625 16.8338 14.7271 17.2313 15.0201 17.5243C15.3132 17.8173 15.7106 17.9819 16.125 17.9819H22.375V20.3257H3.625ZM22.375 11.7319V16.4194H16.125V11.7319H22.375Z" fill="#4E5659"/>
</svg>
