<svg width="16" height="16" viewBox="0 0 16 16" fill="none" xmlns="http://www.w3.org/2000/svg">
<rect width="16" height="16" fill="white" fill-opacity="0.01" style="mix-blend-mode:multiply"/>
<path d="M14 1V3.8611L10.2341 7.33715L6.1909 3.29395C5.995 3.0984 5.73535 2.99805 5.4758 3C5.2436 3.0017 5.01155 3.0857 4.8253 3.2488L2 5.72095V1H1V14C1 14.5513 1.4486 15 2 15H14C14.5514 15 15 14.5513 15 14V1H14ZM14 5.2219V11.103L10.9417 8.0449L14 5.2219ZM5.4839 4.0012L9.4988 8.0161L7.89175 9.4995L6.18435 7.792C5.9988 7.6067 5.75615 7.5083 5.5104 7.5C5.26465 7.4917 5.01615 7.57375 4.81875 7.7466L2 10.2129V7.0498L5.4839 4.0012ZM2 14V11.5417L5.4773 8.49925L7.1846 10.2065C7.37505 10.397 7.62235 10.4951 7.8716 10.5C8.12085 10.5049 8.37195 10.417 8.56995 10.2344L10.2064 8.72365L14 12.5171V14H2Z" fill="#4E5659"/>
</svg>
