<svg width="16" height="16" viewBox="0 0 16 16" fill="none" xmlns="http://www.w3.org/2000/svg">
<rect width="16" height="16" fill="white" fill-opacity="0.01" style="mix-blend-mode:multiply"/>
<path d="M8 13C7.87205 13 7.744 12.9511 7.6465 12.8536L6.1465 11.3536C6.04885 11.2559 6 11.128 6 11C6 10.8721 6.04885 10.7441 6.1465 10.6464L7.6465 9.14645C7.74405 9.04885 7.872 9.00005 8 9.00005C8.128 9.00005 8.256 9.0489 8.3535 9.14645L9.8535 10.6464C9.95115 10.7441 10 10.872 10 11C10 11.1279 9.95115 11.2559 9.8535 11.3536L8.3535 12.8536C8.25595 12.9512 8.1279 13 8 13ZM7.20715 11L8 11.7929L8.79285 11L8 10.2071L7.20715 11Z" fill="#4E5659"/>
<path d="M11 10C10.8721 10 10.744 9.95115 10.6465 9.8536L9.1465 8.3536C9.04885 8.25595 9 8.128 9 8.00005C9 7.8721 9.04885 7.74415 9.1465 7.64645L10.6465 6.14645C10.7441 6.04885 10.872 6.00005 11 6.00005C11.128 6.00005 11.256 6.0489 11.3535 6.14645L12.8535 7.64645C12.9511 7.7441 13 7.87205 13 8C13 8.12795 12.9511 8.2559 12.8535 8.3536L11.3535 9.8536C11.2559 9.9512 11.1279 10 11 10ZM10.2072 8L11 8.7929L11.7928 8L11 7.2071L10.2072 8Z" fill="#4E5659"/>
<path d="M8 7C7.87205 7 7.744 6.95115 7.6465 6.8536L6.1465 5.3536C6.04885 5.25595 6 5.128 6 5.00005C6 4.8721 6.04885 4.74415 6.1465 4.64645L7.6465 3.14645C7.74405 3.04885 7.872 3.00005 8 3.00005C8.128 3.00005 8.256 3.0489 8.3535 3.14645L9.8535 4.64645C9.95115 4.7441 10 4.87205 10 5C10 5.12795 9.95115 5.2559 9.8535 5.3536L8.3535 6.8536C8.25595 6.9512 8.1279 7 8 7ZM7.20715 5L8 5.7929L8.79285 5L8 4.2071L7.20715 5Z" fill="#4E5659"/>
<path d="M5 10C4.87205 10 4.744 9.95115 4.6465 9.8536L3.1465 8.3536C3.04885 8.25595 3 8.128 3 8.00005C3 7.8721 3.04885 7.74415 3.1465 7.64645L4.6465 6.14645C4.74405 6.04885 4.872 6.00005 5 6.00005C5.128 6.00005 5.256 6.0489 5.3535 6.14645L6.8535 7.64645C6.95115 7.7441 7 7.87205 7 8C7 8.12795 6.95115 8.2559 6.8535 8.3536L5.3535 9.8536C5.25595 9.9512 5.1279 10 5 10ZM4.20715 8L5 8.7929L5.79285 8L5 7.2071L4.20715 8Z" fill="#4E5659"/>
<path d="M8 0.5C7.91295 0.5 7.82595 0.5227 7.74805 0.5681L1.74805 4.0681C1.5945 4.1577 1.5 4.32215 1.5 4.5V11.5C1.5 11.6778 1.5945 11.8423 1.74805 11.9319L7.74805 15.4319C7.82595 15.4773 7.91295 15.5 8 15.5C8.08705 15.5 8.17405 15.4773 8.25195 15.4319L13.752 12.2236L13.248 11.3598L8 14.4212L2.5 11.2129V4.78725L8 1.57885L13.5 4.78715V8.5H14.5V4.5C14.5 4.32215 14.4055 4.1577 14.252 4.0681L8.25195 0.5681C8.17405 0.5227 8.08705 0.5 8 0.5Z" fill="#4E5659"/>
</svg>
