<svg width="16" height="16" viewBox="0 0 16 16" fill="none" xmlns="http://www.w3.org/2000/svg">
<rect width="16" height="16" fill="white" fill-opacity="0.01" style="mix-blend-mode:multiply"/>
<path d="M10 10.09L9.205 9.295L8.5 10L10 11.5L12.5 9L11.795 8.295L10 10.09Z" fill="#4E5659"/>
<path d="M7.5 11.5H5.5C5.2239 11.5 5 11.2761 5 11V5C5 4.7239 5.2239 4.5 5.5 4.5H10.5C10.7761 4.5 11 4.7239 11 5V8H10V5.5H6V10.5H7.5V11.5Z" fill="#4E5659"/>
<path d="M8 0.5C7.91295 0.5 7.82595 0.5227 7.74805 0.5681L1.74805 4.0681C1.5945 4.1577 1.5 4.32215 1.5 4.5V11.5C1.5 11.6778 1.5945 11.8423 1.74805 11.9319L7.74805 15.4319C7.82595 15.4773 7.91295 15.5 8 15.5C8.08705 15.5 8.17405 15.4773 8.25195 15.4319L13.752 12.2236L13.248 11.3598L8 14.4212L2.5 11.2129V4.78725L8 1.57885L13.5 4.78715V8.5H14.5V4.5C14.5 4.32215 14.4055 4.1577 14.252 4.0681L8.25195 0.5681C8.17405 0.5227 8.08705 0.5 8 0.5Z" fill="#4E5659"/>
</svg>
