<svg width="26" height="25" viewBox="0 0 26 25" fill="none" xmlns="http://www.w3.org/2000/svg">
<rect width="25" height="25" transform="translate(0.5)" fill="white" fill-opacity="0.01" style="mix-blend-mode:multiply"/>
<path d="M21.5938 19.5313H16.9062C16.2846 19.5313 15.6885 19.7782 15.249 20.2177C14.8094 20.6573 14.5625 21.2534 14.5625 21.875V23.4375H16.125V21.875C16.125 21.6678 16.2073 21.4691 16.3538 21.3226C16.5003 21.1761 16.699 21.0938 16.9062 21.0938H21.5938C21.801 21.0938 21.9997 21.1761 22.1462 21.3226C22.2927 21.4691 22.375 21.6678 22.375 21.875V23.4375H23.9375V21.875C23.9375 21.2534 23.6906 20.6573 23.251 20.2177C22.8115 19.7782 22.2154 19.5313 21.5938 19.5313Z" fill="black"/>
<path d="M16.125 15.625C16.125 16.2431 16.3083 16.8473 16.6517 17.3612C16.995 17.8751 17.4831 18.2756 18.0541 18.5121C18.6251 18.7486 19.2535 18.8105 19.8597 18.69C20.4658 18.5694 21.0227 18.2717 21.4597 17.8347C21.8967 17.3977 22.1944 16.8408 22.315 16.2347C22.4355 15.6285 22.3736 15.0001 22.1371 14.4291C21.9006 13.8581 21.5001 13.37 20.9862 13.0267C20.4723 12.6833 19.8681 12.5 19.25 12.5C18.4212 12.5 17.6263 12.8292 17.0403 13.4153C16.4542 14.0013 16.125 14.7962 16.125 15.625ZM20.8125 15.625C20.8125 15.934 20.7209 16.2361 20.5492 16.4931C20.3775 16.75 20.1335 16.9503 19.8479 17.0686C19.5624 17.1868 19.2483 17.2178 18.9452 17.1575C18.6421 17.0972 18.3637 16.9484 18.1451 16.7299C17.9266 16.5113 17.7778 16.2329 17.7175 15.9298C17.6572 15.6267 17.6882 15.3126 17.8064 15.0271C17.9247 14.7415 18.125 14.4975 18.3819 14.3258C18.6389 14.1541 18.941 14.0625 19.25 14.0625C19.6644 14.0625 20.0618 14.2271 20.3549 14.5201C20.6479 14.8132 20.8125 15.2106 20.8125 15.625Z" fill="black"/>
<path d="M5.1875 16.4063V15.625H3.625V16.4063C3.625 17.8567 4.20117 19.2477 5.22676 20.2732C6.25235 21.2988 7.64335 21.875 9.09375 21.875H11.4375V20.3125H9.09375C8.05775 20.3125 7.06418 19.901 6.33161 19.1684C5.59905 18.4358 5.1875 17.4423 5.1875 16.4063Z" fill="black"/>
<path d="M20.8125 7.8125H15.3438V9.375H20.8125V7.8125Z" fill="black"/>
<path d="M23.1562 4.6875H15.3438V6.25H23.1562V4.6875Z" fill="black"/>
<path d="M23.1562 1.5625H15.3438V3.125H23.1562V1.5625Z" fill="black"/>
<path d="M9.09375 8.59375H4.40625C3.78465 8.59375 3.18851 8.84068 2.74897 9.28022C2.30943 9.71976 2.0625 10.3159 2.0625 10.9375V12.5H3.625V10.9375C3.625 10.7303 3.70731 10.5316 3.85382 10.3851C4.00034 10.2386 4.19905 10.1563 4.40625 10.1563H9.09375C9.30095 10.1563 9.49966 10.2386 9.64618 10.3851C9.79269 10.5316 9.875 10.7303 9.875 10.9375V12.5H11.4375V10.9375C11.4375 10.3159 11.1906 9.71976 10.751 9.28022C10.3115 8.84068 9.71535 8.59375 9.09375 8.59375Z" fill="black"/>
<path d="M6.75 7.8125C7.36807 7.8125 7.97225 7.62922 8.48616 7.28584C9.00006 6.94246 9.4006 6.45441 9.63712 5.88339C9.87365 5.31237 9.93553 4.68403 9.81495 4.07784C9.69438 3.47165 9.39675 2.91483 8.95971 2.47779C8.52267 2.04075 7.96585 1.74313 7.35966 1.62255C6.75347 1.50197 6.12513 1.56385 5.55411 1.80038C4.9831 2.0369 4.49504 2.43744 4.15166 2.95134C3.80828 3.46525 3.625 4.06943 3.625 4.6875C3.625 5.5163 3.95424 6.31116 4.54029 6.89721C5.12634 7.48326 5.9212 7.8125 6.75 7.8125ZM6.75 3.125C7.05903 3.125 7.36113 3.21664 7.61808 3.38833C7.87503 3.56002 8.0753 3.80405 8.19356 4.08956C8.31182 4.37507 8.34277 4.68923 8.28248 4.99233C8.22219 5.29543 8.07337 5.57384 7.85485 5.79236C7.63633 6.01088 7.35792 6.15969 7.05483 6.21998C6.75173 6.28027 6.43757 6.24933 6.15206 6.13106C5.86655 6.0128 5.62252 5.81253 5.45083 5.55558C5.27914 5.29863 5.1875 4.99653 5.1875 4.6875C5.1875 4.2731 5.35212 3.87567 5.64515 3.58265C5.93817 3.28962 6.3356 3.125 6.75 3.125Z" fill="black"/>
</svg>
