<svg width="25" height="25" viewBox="0 0 25 25" fill="none" xmlns="http://www.w3.org/2000/svg">
<rect width="25" height="25" fill="white" fill-opacity="0.01" style="mix-blend-mode:multiply"/>
<path d="M5.98961 21.4865L1.5625 17.5378L2.60242 16.3716L7.00953 20.3026L13.0178 14.4862C13.2976 14.2154 13.6714 14.0634 14.0609 14.0622C14.4503 14.0609 14.8251 14.2106 15.1066 14.4797L17.9375 17.1862L22.2962 12.5194L23.4375 13.5863L19.0772 18.2549C18.9364 18.4057 18.767 18.527 18.579 18.6118C18.3909 18.6966 18.1879 18.7433 17.9817 18.7491C17.7755 18.7549 17.5702 18.7198 17.3776 18.6457C17.1851 18.5716 17.0092 18.46 16.8601 18.3174L14.0659 15.6463L8.07687 21.4436C7.79866 21.713 7.42884 21.8671 7.04167 21.8751C6.6545 21.883 6.27865 21.7442 5.98961 21.4865Z" fill="black"/>
<path d="M23.4375 8.59375H20.3125L21.875 6.25L23.4375 8.59375Z" fill="black"/>
<path d="M17.1875 3.125H14.0625V4.6875H17.1875V6.25H14.8438V7.8125H17.1875V9.375H14.0625V10.9375H17.1875C17.6017 10.9369 17.9988 10.7721 18.2917 10.4792C18.5846 10.1863 18.7494 9.78923 18.75 9.375V4.6875C18.7495 4.27325 18.5848 3.87609 18.2918 3.58317C17.9989 3.29025 17.6018 3.12548 17.1875 3.125Z" fill="black"/>
<path d="M12.5 10.9375H7.8125V7.8125C7.81291 7.39823 7.97767 7.00104 8.2706 6.7081C8.56354 6.41517 8.96073 6.25041 9.375 6.25H10.9375V4.6875H7.8125V3.125H10.9375C11.3518 3.12548 11.7489 3.29025 12.0418 3.58317C12.3348 3.87609 12.4995 4.27325 12.5 4.6875V6.25C12.4995 6.66425 12.3348 7.06141 12.0418 7.35433C11.7489 7.64725 11.3518 7.81202 10.9375 7.8125H9.375V9.375H12.5V10.9375Z" fill="black"/>
<path d="M4.6875 9.375V3.125H3.125V3.90625H1.5625V5.46875H3.125V9.375H1.5625V10.9375H6.25V9.375H4.6875Z" fill="black"/>
</svg>
