<svg width="26" height="25" viewBox="0 0 26 25" fill="none" xmlns="http://www.w3.org/2000/svg">
<rect width="25" height="25" transform="translate(0.25)" fill="white" fill-opacity="0.01" style="mix-blend-mode:multiply"/>
<path d="M23.6875 17.1875H1.8125V18.75H23.6875V17.1875Z" fill="black"/>
<path d="M23.6875 20.3125H1.8125V21.875H23.6875V20.3125Z" fill="black"/>
<path d="M19 7.8125C18.691 7.8125 18.3889 7.90414 18.1319 8.07583C17.875 8.24752 17.6747 8.49155 17.5564 8.77706C17.4382 9.06257 17.4072 9.37673 17.4675 9.67983C17.5278 9.98292 17.6766 10.2613 17.8951 10.4799C18.1137 10.6984 18.3921 10.8472 18.6952 10.9075C18.9983 10.9678 19.3124 10.9368 19.5979 10.8186C19.8835 10.7003 20.1275 10.5 20.2992 10.2431C20.4709 9.98613 20.5625 9.68403 20.5625 9.375C20.5625 8.9606 20.3979 8.56317 20.1049 8.27015C19.8118 7.97712 19.4144 7.8125 19 7.8125Z" fill="black"/>
<path d="M12.75 12.5C12.1319 12.5 11.5277 12.3167 11.0138 11.9733C10.4999 11.63 10.0994 11.1419 9.86288 10.5709C9.62635 9.99987 9.56447 9.37153 9.68505 8.76534C9.80562 8.15915 10.1033 7.60233 10.5403 7.16529C10.9773 6.72825 11.5342 6.43062 12.1403 6.31005C12.7465 6.18947 13.3749 6.25135 13.9459 6.48788C14.5169 6.7244 15.005 7.12494 15.3483 7.63884C15.6917 8.15275 15.875 8.75693 15.875 9.375C15.8741 10.2035 15.5445 10.9978 14.9587 11.5837C14.3728 12.1695 13.5785 12.4991 12.75 12.5ZM12.75 7.8125C12.441 7.8125 12.1389 7.90414 11.8819 8.07583C11.625 8.24752 11.4247 8.49155 11.3064 8.77706C11.1882 9.06257 11.1572 9.37673 11.2175 9.67983C11.2778 9.98292 11.4266 10.2613 11.6451 10.4799C11.8637 10.6984 12.1421 10.8472 12.4452 10.9075C12.7483 10.9678 13.0624 10.9368 13.3479 10.8186C13.6335 10.7003 13.8775 10.5 14.0492 10.2431C14.2209 9.98613 14.3125 9.68403 14.3125 9.375C14.3121 8.96073 14.1473 8.56354 13.8544 8.2706C13.5615 7.97767 13.1643 7.81291 12.75 7.8125Z" fill="black"/>
<path d="M6.5 7.8125C6.19097 7.8125 5.88887 7.90414 5.63192 8.07583C5.37497 8.24752 5.1747 8.49155 5.05644 8.77706C4.93818 9.06257 4.90723 9.37673 4.96752 9.67983C5.02781 9.98292 5.17663 10.2613 5.39515 10.4799C5.61367 10.6984 5.89208 10.8472 6.19517 10.9075C6.49827 10.9678 6.81243 10.9368 7.09794 10.8186C7.38345 10.7003 7.62748 10.5 7.79917 10.2431C7.97086 9.98613 8.0625 9.68403 8.0625 9.375C8.0625 8.9606 7.89788 8.56317 7.60485 8.27015C7.31183 7.97712 6.9144 7.8125 6.5 7.8125Z" fill="black"/>
<path d="M22.125 15.625H3.375C2.96092 15.6239 2.56411 15.459 2.27131 15.1662C1.97851 14.8734 1.81355 14.4766 1.8125 14.0625V4.6875C1.81355 4.27342 1.97851 3.87661 2.27131 3.58381C2.56411 3.29101 2.96092 3.12605 3.375 3.125H22.125C22.5391 3.12605 22.9359 3.29101 23.2287 3.58381C23.5215 3.87661 23.6864 4.27342 23.6875 4.6875V14.0625C23.6869 14.4767 23.5221 14.8738 23.2292 15.1667C22.9363 15.4596 22.5392 15.6244 22.125 15.625ZM22.125 4.6875H3.375V14.0625H22.125V4.6875Z" fill="black"/>
</svg>
