<svg width="20" height="20" viewBox="0 0 20 20" fill="none" xmlns="http://www.w3.org/2000/svg">
<rect width="20" height="20" fill="white" fill-opacity="0.01" style="mix-blend-mode:multiply"/>
<path d="M18.3362 11.2085L13.5034 9.47206L11.4838 6.93544C11.3081 6.7207 11.0868 6.54777 10.8359 6.42921C10.5851 6.31065 10.311 6.24943 10.0336 6.25H5.036C4.73039 6.24987 4.42938 6.3245 4.15921 6.46737C3.88905 6.61024 3.65793 6.81702 3.486 7.06969L1.79138 9.55931C1.43826 10.0775 1.24959 10.6901 1.25 11.3171V16.25C1.25 16.4158 1.31585 16.5747 1.43306 16.6919C1.55027 16.8092 1.70924 16.875 1.875 16.875H3.21381C3.35009 17.4111 3.66115 17.8865 4.09781 18.226C4.53448 18.5656 5.07185 18.7499 5.625 18.7499C6.17815 18.7499 6.71552 18.5656 7.15219 18.226C7.58885 17.8865 7.89991 17.4111 8.03619 16.875H11.9638C12.1001 17.4111 12.4111 17.8865 12.8478 18.226C13.2845 18.5656 13.8219 18.7499 14.375 18.7499C14.9281 18.7499 15.4655 18.5656 15.9022 18.226C16.3389 17.8865 16.6499 17.4111 16.7862 16.875H18.125C18.2908 16.875 18.4497 16.8092 18.5669 16.6919C18.6842 16.5747 18.75 16.4158 18.75 16.25V11.7969C18.75 11.6681 18.7103 11.5425 18.6362 11.4372C18.5622 11.3319 18.4574 11.252 18.3362 11.2085ZM5.625 17.5C5.37777 17.5 5.1361 17.4267 4.93054 17.2893C4.72498 17.152 4.56476 16.9568 4.47015 16.7284C4.37554 16.4999 4.35079 16.2486 4.39902 16.0061C4.44725 15.7637 4.5663 15.5409 4.74112 15.3661C4.91593 15.1913 5.13866 15.0722 5.38114 15.024C5.62361 14.9758 5.87495 15.0005 6.10335 15.0951C6.33176 15.1898 6.52699 15.35 6.66434 15.5555C6.80169 15.7611 6.875 16.0028 6.875 16.25C6.87455 16.5814 6.74271 16.8991 6.50839 17.1334C6.27407 17.3677 5.95638 17.4996 5.625 17.5ZM14.375 17.5C14.1278 17.5 13.8861 17.4267 13.6805 17.2893C13.475 17.152 13.3148 16.9568 13.2202 16.7284C13.1255 16.4999 13.1008 16.2486 13.149 16.0061C13.1973 15.7637 13.3163 15.5409 13.4911 15.3661C13.6659 15.1913 13.8887 15.0722 14.1311 15.024C14.3736 14.9758 14.6249 15.0005 14.8534 15.0951C15.0818 15.1898 15.277 15.35 15.4143 15.5555C15.5517 15.7611 15.625 16.0028 15.625 16.25C15.6246 16.5814 15.4928 16.8991 15.2584 17.1334C15.0241 17.3678 14.7064 17.4996 14.375 17.5ZM17.5 15.625H16.7862C16.6499 15.0889 16.3389 14.6135 15.9022 14.274C15.4655 13.9344 14.9281 13.7501 14.375 13.7501C13.8219 13.7501 13.2845 13.9344 12.8478 14.274C12.4111 14.6135 12.1001 15.0889 11.9638 15.625H8.03619C7.89991 15.0889 7.58885 14.6135 7.15219 14.274C6.71552 13.9344 6.17815 13.7501 5.625 13.7501C5.07185 13.7501 4.53448 13.9344 4.09781 14.274C3.66115 14.6135 3.35009 15.0889 3.21381 15.625H2.5V11.3171C2.49986 10.9407 2.61311 10.5729 2.825 10.2618L4.51938 7.77344C4.57665 7.68917 4.65367 7.6202 4.74372 7.57254C4.83377 7.52488 4.93412 7.49998 5.036 7.5H10.0336C10.1246 7.49961 10.2146 7.51925 10.2972 7.55754C10.3798 7.59583 10.453 7.65183 10.5115 7.72156L12.6361 10.3894C12.7084 10.4802 12.8046 10.5491 12.9138 10.5884L17.5 12.2363V15.625Z" fill="black"/>
<path d="M18.75 1.25H17.5V5.625H18.75V1.25Z" fill="black"/>
<path d="M16.25 3.75H15V5.625H16.25V3.75Z" fill="black"/>
<path d="M13.75 2.5H12.5V5.625H13.75V2.5Z" fill="black"/>
</svg>
